<svg xmlns="http://www.w3.org/2000/svg" version="1.1" xmlns:xlink="http://www.w3.org/1999/xlink" xmlns:svgjs="http://svgjs.dev/svgjs" width="100%" height="100%" viewBox="0 0 1000 600"><rect width="1000" height="600" x="0" y="0" fill="0A0A0A"/><g><circle r="166.66666666666666" cx="403.6636301676432" cy="425.8859254718225" fill="#fbeaeb" transform="matrix(0.5274328029703825,0,0,0.5274328029703825,0,75.37379639745936)"/><path d="M367.03256427528345 451.7045954026072L367.03256427528345 453.4737087721075Q367.03256427528345 454.0564755291194 366.44979751827157 454.0564755291194L366.44979751827157 454.0564755291194L329.0694726756523 454.0564755291194Q328.48670591864044 454.0564755291194 328.48670591864044 453.4737087721075L328.48670591864044 453.4737087721075L328.48670591864044 451.7045954026072Q328.48670591864044 451.1218286455953 329.4232953495524 451.1218286455953L329.4232953495524 451.1218286455953Q339.4552088095426 450.6847535778364 342.97262245007863 440.444709133199L342.97262245007863 440.444709133199L372.81860564847284 354.0287243077229Q372.9018580423317 353.8830326184699 372.9018580423317 353.67490163382286L372.9018580423317 353.67490163382286L372.090147202208 351.26058221191647Q372.090147202208 350.8859464395517 372.38153058071396 350.8859464395517L372.38153058071396 350.8859464395517L387.01313880140515 350.8859464395517Q387.1588304906581 350.94838573494576 387.4085876722346 351.0316381288046Q387.67915795227583 351.1148905226635 387.8248496415288 351.46871319656356L387.8248496415288 351.46871319656356L418.77392705855266 438.3217730897986Q419.7937688833234 440.29901744394607 420.41816183726473 441.9016260257287Q421.04255479120604 443.52504770597614 421.8542656313298 444.83627290925284L421.8542656313298 444.83627290925284Q423.6025659023654 447.8333590881711 427.61949390605446 449.45678076841847L427.61949390605446 449.45678076841847Q430.99121585733747 451.1218286455953 433.7801710516086 451.1218286455953L433.7801710516086 451.1218286455953Q434.3629378086205 451.1218286455953 434.3629378086205 451.787847796466L434.3629378086205 451.787847796466L434.3629378086205 453.4737087721075Q434.3629378086205 454.0564755291194 433.7801710516086 454.0564755291194L433.7801710516086 454.0564755291194L388.9903831555526 454.0564755291194Q388.40761639854065 454.0564755291194 388.40761639854065 453.4737087721075L388.40761639854065 453.4737087721075L388.40761639854065 451.7045954026072Q388.40761639854065 451.1218286455953 391.113319198953 450.9761369563423Q393.8190219993653 450.8304452670893 395.56732227040095 450.6847535778364L395.56732227040095 450.6847535778364Q405.74492741964417 449.60247245767147 405.74492741964417 443.8164310844821L405.74492741964417 443.8164310844821Q405.74492741964417 443.37935601672314 405.5992357303912 442.79658925971125L405.5992357303912 442.79658925971125L394.5474804456302 411.6185677595756Q394.48504115023604 411.4728760703226 394.2560970671242 410.9525486087049L394.2560970671242 410.9525486087049Q393.3819469316064 408.47578989140436 391.1757584943471 408.47578989140436L391.1757584943471 408.47578989140436L365.201011610389 408.47578989140436Q363.0156362715944 408.47578989140436 361.7668503637118 410.89010931331075L361.7668503637118 410.89010931331075Q361.5587193790647 411.38962367646377 361.5587193790647 411.4728760703226L361.5587193790647 411.4728760703226L350.5694033896978 443.5874870013703L350.5694033896978 444.25350615224096Q350.5694033896978 446.14749811252955 352.54664774384526 447.6876673989181L352.54664774384526 447.6876673989181Q357.02146391375794 451.1218286455953 364.555805557983 451.1218286455953L364.555805557983 451.1218286455953L366.44979751827157 451.1218286455953Q367.03256427528345 451.1218286455953 367.03256427528345 451.7045954026072L367.03256427528345 451.7045954026072ZM367.1158166691423 400.35868149016744L388.69899977704665 400.35868149016744Q390.01022498032336 400.35868149016744 390.01022498032336 399.2555872715378L390.01022498032336 399.2555872715378Q390.01022498032336 398.67282051452594 389.7188416018174 397.9443620682611L389.7188416018174 397.9443620682611L378.8127780063094 367.9318740821492Q378.0843195600445 365.95462972800175 377.73049688614446 365.95462972800175L377.73049688614446 365.95462972800175Q377.35586111377967 365.95462972800175 376.544150273656 368.01512647600805L376.544150273656 368.01512647600805L366.3041058290186 397.9443620682611Q366.0127224505127 398.67282051452594 366.0127224505127 399.50534445311433Q366.0127224505127 400.35868149016744 367.1158166691423 400.35868149016744L367.1158166691423 400.35868149016744ZM478.8405292277059 351.46871319656356L478.8405292277059 353.2170134675992Q478.8405292277059 353.8205933230758 475.84344304878766 353.8205933230758Q472.8463568698694 353.8205933230758 469.9117099863453 355.9019031695468Q466.99787620128586 357.98321301601777 466.99787620128586 364.26876875236024L466.99787620128586 364.26876875236024L466.99787620128586 454.78493397538426Q466.99787620128586 471.1024031717169 457.69442118756047 485.1512446353962L457.69442118756047 485.1512446353962Q451.3256130573592 494.8917747168805 441.75158776359257 498.84626342517544L441.75158776359257 498.84626342517544Q436.839696525921 500.885947074717 431.6156088112788 500.885947074717Q426.37070799817184 500.885947074717 421.3963774651061 498.5548800466695Q416.4220469320404 496.20299992015725 416.4220469320404 493.26835303663313Q416.4220469320404 490.3545192515737 418.77392705855266 488.4189010943557Q421.1049940866002 486.462469838673 423.6025659023654 486.462469838673Q426.0793246196659 486.462469838673 427.7027462999133 486.9827973002907Q429.30535488169596 487.50312476190845 430.51251459264915 488.27320940510276Q431.71967430360235 489.0224809498323 432.63545063604954 489.93825728227955Q433.5512269684968 490.8540336147268 435.1954617472089 492.1444457195388Q436.839696525921 493.41404472588613 439.69109101558627 493.41404472588613L439.69109101558627 493.41404472588613Q445.33144069952266 493.41404472588613 448.2869006815115 488.71028447286164Q451.26317376196505 483.98571112137245 451.99163220822993 477.57527679424174Q452.72009065449475 471.18565556557576 452.72009065449475 461.38268618869733L452.72009065449475 461.38268618869733L452.72009065449475 362.5829077767187Q452.72009065449475 355.19425782174665 444.45729056400484 354.11197670158174L444.45729056400484 354.11197670158174Q441.8140270589867 353.8205933230758 438.5255575015625 353.8205933230758L438.5255575015625 353.8205933230758Q437.9427907445506 353.8205933230758 437.9427907445506 353.2170134675992L437.9427907445506 353.2170134675992L437.9427907445506 351.46871319656356Q437.9427907445506 350.8859464395517 438.5255575015625 350.8859464395517L438.5255575015625 350.8859464395517L478.25776247069405 350.8859464395517Q478.8405292277059 350.8859464395517 478.8405292277059 351.46871319656356L478.8405292277059 351.46871319656356Z " fill="#2f3c7e" transform="matrix(0.5274328029703825,0,0,0.5274328029703825,0,75.37379639745936)"/><path d="M688.2459709769429 456.7617067455655L688.2459709769429 458.348909497884Q688.2459709769429 458.87175275747126 687.7231277173556 458.87175275747126L687.7231277173556 458.87175275747126L654.1864672095436 458.87175275747126Q653.6636239499563 458.87175275747126 653.6636239499563 458.348909497884L653.6636239499563 458.348909497884L653.6636239499563 456.7617067455655Q653.6636239499563 456.23886348597824 654.5039077600072 456.23886348597824L654.5039077600072 456.23886348597824Q663.504281014331 455.8467310412878 666.6600135454113 446.6596280513972L666.6600135454113 446.6596280513972L693.4370576257022 369.1294418440277Q693.511749519929 368.9987310291309 693.511749519929 368.81200129356404L693.511749519929 368.81200129356404L692.7835035512181 366.6459363609882Q692.7835035512181 366.3098228369678 693.0449251810118 366.3098228369678L693.0449251810118 366.3098228369678L706.1720255913635 366.3098228369678Q706.3027364062605 366.3658417576379 706.5268120889407 366.4405336518646Q706.7695607451776 366.51522554609136 706.9002715600744 366.83266609655504L706.9002715600744 366.83266609655504L734.6669832388698 444.754984748615Q735.5819589431476 446.5289172365004 736.1421481498481 447.96673620036535Q736.7023373565488 449.423228137787 737.4305833252597 450.5996254718584L737.4305833252597 450.5996254718584Q738.9991131040215 453.2885336640215 742.6029970004622 454.74502560144316L742.6029970004622 454.74502560144316Q745.6280187166458 456.23886348597824 748.130197173242 456.23886348597824L748.130197173242 456.23886348597824Q748.6530404328292 456.23886348597824 748.6530404328292 456.83639863979226L748.6530404328292 456.83639863979226L748.6530404328292 458.348909497884Q748.6530404328292 458.87175275747126 748.130197173242 458.87175275747126L748.130197173242 458.87175275747126L707.945958079249 458.87175275747126Q707.4231148196617 458.87175275747126 707.4231148196617 458.348909497884L707.4231148196617 458.348909497884L707.4231148196617 456.7617067455655Q707.4231148196617 456.23886348597824 709.8506013820311 456.1081526710814Q712.2780879444006 455.9774418561846 713.8466177231624 455.8467310412878L713.8466177231624 455.8467310412878Q722.977701792383 454.87573641634003 722.977701792383 449.6846497675807L722.977701792383 449.6846497675807Q722.977701792383 449.2925173228902 722.8469909774861 448.76967406330294L722.8469909774861 448.76967406330294L712.9316420188848 420.79755967538404Q712.8756230982146 420.6668488604872 712.6702203890911 420.20002452156996L712.6702203890911 420.20002452156996Q711.8859554997102 417.9779406683241 709.9066203027012 417.9779406683241L709.9066203027012 417.9779406683241L686.6027493039544 417.9779406683241Q684.642087080502 417.9779406683241 683.5217086671007 420.14400560089996L683.5217086671007 420.14400560089996Q683.3349789315339 420.5921569662604 683.3349789315339 420.6668488604872L683.3349789315339 420.6668488604872L673.4756488936025 449.4792470584571L673.4756488936025 450.07678221227116Q673.4756488936025 451.77602280592976 675.2495813814878 453.15782284912467L675.2495813814878 453.15782284912467Q679.2642706961758 456.23886348597824 686.023887123697 456.23886348597824L686.023887123697 456.23886348597824L687.7231277173556 456.23886348597824Q688.2459709769429 456.23886348597824 688.2459709769429 456.7617067455655L688.2459709769429 456.7617067455655ZM688.3206628711696 410.69548098121567L707.6845364494553 410.69548098121567Q708.8609337835267 410.69548098121567 708.8609337835267 409.7058133827112L708.8609337835267 409.7058133827112Q708.8609337835267 409.18297012312394 708.599512153733 408.52941604863986L708.599512153733 408.52941604863986L698.8148740100285 381.6029881798954Q698.1613199355443 379.82905569201006 697.8438793850806 379.82905569201006L697.8438793850806 379.82905569201006Q697.5077658610603 379.82905569201006 696.7795198923494 381.6776800741222L696.7795198923494 381.6776800741222L687.5924169024588 408.52941604863986Q687.3309952726652 409.18297012312394 687.3309952726652 409.9298890653915Q687.3309952726652 410.69548098121567 688.3206628711696 410.69548098121567L688.3206628711696 410.69548098121567ZM801.7589772280505 438.2007710302174L801.7589772280505 438.2007710302174L801.6282664131537 424.34542465115476Q801.6282664131537 415.86789465641834 800.171774475732 412.4507404955444Q798.7339555118671 409.0522593082271 796.5118716586212 407.2969997938984Q794.2711148318185 405.5604132531264 790.4991741733676 405.5604132531264Q786.7272335149165 405.5604132531264 774.5151088088425 411.4797458705966L774.5151088088425 411.4797458705966Q772.8718871358539 412.4507404955444 772.7971952416272 413.30969727915203L772.7971952416272 413.30969727915203L772.7971952416272 448.6389632484061Q772.7971952416272 455.2678688610305 779.8929251931686 456.23886348597824L779.8929251931686 456.23886348597824Q782.9739658300222 456.70568782489545 782.9739658300222 457.7140283969566Q782.9739658300222 458.74104194257444 782.3204117555381 458.87175275747126L782.3204117555381 458.87175275747126L753.041189218651 458.87175275747126Q752.3876351441669 458.74104194257444 752.3876351441669 457.95677705319355L752.3876351441669 457.95677705319355Q752.3876351441669 456.70568782489545 755.4686757810205 456.23886348597824L755.4686757810205 456.23886348597824Q762.564405732562 455.2678688610305 762.564405732562 448.6389632484061L762.564405732562 448.6389632484061L762.564405732562 410.95690261100935Q762.564405732562 408.19330252461947 759.5393840163786 407.14761600544495L759.5393840163786 407.14761600544495Q758.2322758674103 406.68079166652774 756.7197650093185 406.3820240896207Q755.2072541512268 406.0832565127137 754.3296243940625 405.82183488292003Q753.4333216633414 405.5604132531264 753.2092459806612 405.3363375704462Q752.985170297981 405.1122618877659 752.985170297981 404.3466699719417Q752.985170297981 403.59975102967417 753.9561649229287 403.0769077700869L753.9561649229287 403.0769077700869L770.7058222032781 395.19691292916445Q771.490087092659 394.804780484474 771.6954898017825 394.804780484474L771.6954898017825 394.804780484474Q772.7971952416272 394.804780484474 772.7971952416272 396.3733102632358L772.7971952416272 396.3733102632358L772.7971952416272 406.6247727458576Q773.0025979507507 407.27832682034176 773.3387114747711 407.27832682034176L773.3387114747711 407.27832682034176Q773.7308439194616 407.27832682034176 776.158330481831 406.0832565127137L776.158330481831 406.0832565127137Q781.7975684959508 403.2636375056538 787.5114984042974 400.6494212077174Q793.225428312644 398.0165319362244 796.9600230239816 398.0165319362244L796.9600230239816 398.0165319362244Q812.1224775520125 398.0165319362244 812.1224775520125 425.6525328001229L812.1224775520125 425.6525328001229L811.5436153717552 444.8296766428417L811.5436153717552 448.6389632484061Q811.5436153717552 453.7553580029387 816.6600101262877 455.32388778170053L816.6600101262877 455.32388778170053Q818.8260750588636 456.0521337504114 820.8240832294292 456.35090132731835Q822.8220913999949 456.6309959306687 823.4569725009222 456.911090534019Q824.0731806282929 457.17251216381266 824.0731806282929 457.95677705319355Q824.0731806282929 458.74104194257444 823.4196265538089 458.87175275747126L823.4196265538089 458.87175275747126L791.7689363752223 458.87175275747126Q791.1153823007382 458.74104194257444 791.1153823007382 457.95677705319355L791.1153823007382 457.95677705319355Q791.1153823007382 456.70568782489545 794.2150959111485 456.23886348597824L794.2150959111485 456.23886348597824Q801.2361339684633 455.2678688610305 801.2361339684633 448.0974470152622L801.2361339684633 448.0974470152622Q801.7589772280505 444.8296766428417 801.7589772280505 438.2007710302174ZM865.695238686151 408.38003226018634L845.9392326631748 408.38003226018634Q845.5471002184844 408.38003226018634 845.5471002184844 408.97756741400036L845.5471002184844 408.97756741400036L845.5471002184844 445.22180908753216Q845.5471002184844 449.1618065079934 847.2836867592564 451.3838903612393Q849.0202733000284 453.6246471880419 851.7091814921915 453.6246471880419Q854.3980896843547 453.6246471880419 856.414770828477 452.7283444573209Q858.4127789990425 451.8507147001565 859.887943910021 450.80502818098194Q861.3631088209993 449.7406686882507 862.5395061550707 448.8630389310864Q863.7345764626988 447.96673620036535 864.6495521669765 447.96673620036535Q865.5645278712542 447.96673620036535 865.5645278712542 448.43356053928255L865.5645278712542 448.43356053928255Q865.5645278712542 450.0020903180444 865.2284143472338 450.4689146569616L865.2284143472338 450.4689146569616Q857.367092479868 460.6456852453567 850.0472868456462 460.6456852453567Q842.7274812114244 460.6456852453567 839.0115594736435 456.01478780329796Q835.2956377358626 451.3838903612393 835.2956377358626 444.96038745773853L835.2956377358626 444.96038745773853L835.2956377358626 408.38003226018634L830.3846456904536 408.38003226018634Q828.5360213083414 408.38003226018634 828.442656440558 407.203634926115Q828.3492915727745 406.02723759204366 828.7974429381351 405.6911240680232L828.7974429381351 405.6911240680232Q832.2892889932358 403.46904021477735 838.3953513462728 397.680418412204L838.3953513462728 397.680418412204Q839.0489054207569 396.9708454170499 840.1506108606015 395.51435347962814Q841.2709892740029 394.07653451576317 843.3997082594653 391.574356059167Q845.5471002184844 389.0908505761274 846.6674786318857 389.0908505761274Q847.7691840717303 389.0908505761274 847.7691840717303 390.00582628040513L847.7691840717303 390.00582628040513Q847.7691840717303 390.13653709530195 845.5471002184844 398.6140670900384L845.5471002184844 398.6140670900384Q845.5471002184844 399.79046442410976 846.5927867376589 399.8464833447798L846.5927867376589 399.8464833447798L863.3237710444516 399.8464833447798Q866.2180819457383 399.8464833447798 866.2180819457383 407.9878998154959L866.2180819457383 407.9878998154959Q866.2180819457383 408.38003226018634 865.695238686151 408.38003226018634L865.695238686151 408.38003226018634ZM890.250198913196 352.4544764579051L890.250198913196 408.06259170972265Q890.250198913196 409.63112148848444 890.7170232521132 409.63112148848444Q891.1651746174738 409.63112148848444 891.3705773265973 409.4070458058042Q891.5573070621642 409.18297012312394 894.1155044394304 406.34467814250735L894.1155044394304 406.34467814250735Q901.5473479149924 398.09122383045116 909.1472481525644 398.09122383045116L909.1472481525644 398.09122383045116Q919.1372890053926 398.09122383045116 923.7868594210081 402.55406451049964L923.7868594210081 402.55406451049964Q929.5007893293547 408.19330252461947 929.5007893293547 421.5258056440948L929.5007893293547 421.5258056440948L929.5007893293547 448.90038487819976Q929.5007893293547 455.32388778170053 936.5965192808961 456.36957430087506L936.5965192808961 456.36957430087506Q939.6775599177497 456.7617067455655 939.6775599177497 457.75137434407Q939.6775599177497 458.74104194257444 939.0240058432656 458.87175275747126L939.0240058432656 458.87175275747126L909.7447833063784 458.87175275747126Q909.0912292318944 458.74104194257444 909.0912292318944 457.95677705319355L909.0912292318944 457.95677705319355Q909.0912292318944 456.7617067455655 912.1722698687479 456.36957430087506L912.1722698687479 456.36957430087506Q919.2679998202894 455.32388778170053 919.2679998202894 448.90038487819976L919.2679998202894 448.90038487819976L919.2679998202894 422.17935971857895Q919.2679998202894 412.52543238977114 917.8861997770946 409.63112148848444L917.8861997770946 409.63112148848444Q915.2533105056016 403.8611726594678 906.9251642993186 403.8611726594678L906.9251642993186 403.8611726594678Q901.808769544786 403.8611726594678 896.0201477422127 408.2306484717328Q890.250198913196 412.5814513104412 890.250198913196 417.8472298534273L890.250198913196 417.8472298534273L890.250198913196 448.90038487819976Q890.250198913196 455.32388778170053 897.3459288647375 456.36957430087506L897.3459288647375 456.36957430087506Q900.4269695015911 456.7617067455655 900.4269695015911 457.75137434407Q900.4269695015911 458.74104194257444 899.773415427107 458.87175275747126L899.773415427107 458.87175275747126L870.4941928902199 458.87175275747126Q869.8406388157358 458.74104194257444 869.8406388157358 457.95677705319355L869.8406388157358 457.95677705319355Q869.8406388157358 456.7617067455655 872.9216794525894 456.36957430087506L872.9216794525894 456.36957430087506Q879.9987364305741 455.32388778170053 879.9987364305741 448.90038487819976L879.9987364305741 448.90038487819976L879.9987364305741 367.0380688056786Q879.9987364305741 364.2744687192888 876.9923876879474 363.2287822001142L876.9923876879474 363.2287822001142Q875.6666065654225 362.76195786119706 874.1727686808874 362.46319028429Q872.6602578227958 362.164422707383 871.7639550920746 361.90300107758935Q870.8863253349103 361.6415794477957 870.6435766786733 361.4175037651155Q870.4195009959931 361.1934280824352 870.4195009959931 360.42783616661103Q870.4195009959931 359.6809172243435 871.4091685944976 359.1580739647562L871.4091685944976 359.1580739647562L888.1401529012902 351.2780791238338Q888.9430907642278 350.88594667914333 889.1298204997947 350.88594667914333L889.1298204997947 350.88594667914333Q890.250198913196 350.88594667914333 890.250198913196 352.4544764579051L890.250198913196 352.4544764579051ZM946.5678871601676 429.3684545379039Q946.5678871601676 416.4654298102323 955.7363171765015 407.1662889790016Q964.8860742192787 397.8858211213276 977.6957340791669 397.8858211213276Q990.4867209654983 397.8858211213276 999.9539185587392 406.90486734920796Q1009.4024431784235 415.9425865506451 1009.4024431784235 429.2003977758937Q1009.4024431784235 442.45820900114234 1000.4394158712131 451.5519471232495Q991.4763885640028 460.6456852453567 977.9571557089605 460.6456852453567Q964.4379228539183 460.6456852453567 955.4935685202646 451.45858225546607Q946.5678871601676 442.27147926557546 946.5678871601676 429.3684545379039ZM962.9254119958266 446.26749560670675L962.9254119958266 446.26749560670675Q969.3489148993273 457.0978202695859 980.4406611920001 457.0978202695859L980.4406611920001 457.0978202695859Q989.0489020016333 457.0978202695859 993.6051075494652 450.20749302716797Q998.1799860708539 443.31716578475 998.1799860708539 433.27110601125173Q998.1799860708539 423.2250462377535 991.7751561409099 412.65614320466796Q985.3703262109658 402.08724017158244 974.5400015480866 402.08724017158244L974.5400015480866 402.08724017158244Q966.6039877864941 402.08724017158244 962.0291092651055 408.940221466887Q957.4729037172735 415.81187573574823 957.4729037172735 426.3434328217204Q957.4729037172735 436.87498990769257 962.9254119958266 446.26749560670675ZM1067.10193146859 438.2007710302174L1067.10193146859 438.2007710302174L1066.9712206536933 424.34542465115476Q1066.9712206536933 415.86789465641834 1065.5334016898282 412.4507404955444Q1064.0769097524067 409.0522593082271 1061.8548258991607 407.2969997938984Q1059.6140690723582 405.5604132531264 1055.8421284139072 405.5604132531264Q1052.0701877554561 405.5604132531264 1039.858063049382 411.4797458705966L1039.858063049382 411.4797458705966Q1038.2148413763935 412.4507404955444 1038.1588224557233 413.30969727915203L1038.1588224557233 413.30969727915203L1038.1588224557233 448.6389632484061Q1038.1588224557233 455.2678688610305 1045.235879433708 456.23886348597824L1045.235879433708 456.23886348597824Q1048.3355930441185 456.70568782489545 1048.3355930441185 457.7140283969566Q1048.3355930441185 458.74104194257444 1047.6633659960776 458.87175275747126L1047.6633659960776 458.87175275747126L1018.3841434591905 458.87175275747126Q1017.7305893847065 458.74104194257444 1017.7305893847065 457.95677705319355L1017.7305893847065 457.95677705319355Q1017.7305893847065 456.70568782489545 1020.81163002156 456.23886348597824L1020.81163002156 456.23886348597824Q1027.9073599731014 455.2678688610305 1027.9073599731014 448.6389632484061L1027.9073599731014 448.6389632484061L1027.9073599731014 410.95690261100935Q1027.9073599731014 408.19330252461947 1024.882338256918 407.14761600544495L1024.882338256918 407.14761600544495Q1023.5752301079499 406.68079166652774 1022.0627192498582 406.3820240896207Q1020.5502083917663 406.0832565127137 1019.672578634602 405.82183488292003Q1018.776275903881 405.5604132531264 1018.5522002212008 405.3363375704462Q1018.3281245385206 405.1122618877659 1018.3281245385206 404.3466699719417Q1018.3281245385206 403.59975102967417 1019.317792137025 403.0769077700869L1019.317792137025 403.0769077700869L1036.0487764438176 395.19691292916445Q1036.8330413331985 394.804780484474 1037.0384440423222 394.804780484474L1037.0384440423222 394.804780484474Q1038.1588224557233 394.804780484474 1038.1588224557233 396.3733102632358L1038.1588224557233 396.3733102632358L1038.1588224557233 406.6247727458576Q1038.3455521912902 407.27832682034176 1038.6816657153106 407.27832682034176L1038.6816657153106 407.27832682034176Q1039.0737981600012 407.27832682034176 1041.5012847223707 406.0832565127137L1041.5012847223707 406.0832565127137Q1047.1405227364903 403.2636375056538 1052.854452644837 400.6494212077174Q1058.5683825531837 398.0165319362244 1062.3029772645214 398.0165319362244L1062.3029772645214 398.0165319362244Q1077.465431792552 398.0165319362244 1077.465431792552 425.6525328001229L1077.465431792552 425.6525328001229L1076.8865696122948 444.8296766428417L1076.8865696122948 448.6389632484061Q1076.8865696122948 453.7553580029387 1082.0029643668272 455.32388778170053L1082.0029643668272 455.32388778170053Q1084.169029299403 456.0521337504114 1086.1670374699688 456.35090132731835Q1088.183718614091 456.6309959306687 1088.7999267414618 456.911090534019Q1089.4161348688326 457.17251216381266 1089.4161348688326 457.95677705319355Q1089.4161348688326 458.74104194257444 1088.7625807943484 458.87175275747126L1088.7625807943484 458.87175275747126L1057.1305635893186 458.87175275747126Q1056.4583365412777 458.74104194257444 1056.4583365412777 457.95677705319355L1056.4583365412777 457.95677705319355Q1056.4583365412777 456.70568782489545 1059.5580501516881 456.23886348597824L1059.5580501516881 456.23886348597824Q1066.5790882090027 455.2678688610305 1066.5790882090027 448.0974470152622L1066.5790882090027 448.0974470152622Q1067.10193146859 444.8296766428417 1067.10193146859 438.2007710302174ZM1134.5300389817912 399.79046442410976L1159.4024397592998 399.79046442410976Q1160.1306857280108 399.9771941596766 1160.1306857280108 400.70544012838747Q1160.1306857280108 401.4336860970983 1159.9999749131139 401.6577617797786Q1159.8692640982172 401.88183746245886 1159.3650938121866 402.049894224469Q1158.8795964997125 402.21795098647925 1157.9832937689916 402.34866180137607Q1157.1056640118272 402.4793726162729 1155.201020709045 402.8341591138499Q1153.2963774062628 403.2076185849837 1151.7838665481713 405.50439433245634Q1150.2713556900794 407.801170079929 1148.5721150964207 411.87187831528706L1148.5721150964207 411.87187831528706L1117.7243627807718 488.35637800348195L1113.4482518362902 497.41277017847574Q1111.8050301633016 500.88594326001976 1106.5579245938723 500.88594326001976L1106.5579245938723 500.88594326001976Q1104.2611488463997 500.88594326001976 1102.8793488032047 499.37343240192797Q1101.4975487600097 497.8609215438363 1101.4975487600097 495.80689445260055Q1101.4975487600097 493.7341943878082 1102.5245623056276 492.7818727364171Q1103.5329028776887 491.82955108502597 1104.9147029208839 491.23201593121195Q1106.2965029640786 490.65315375095463 1107.7716678750571 490.1489834649241Q1109.2468327860354 489.6634861524501 1111.0767841945908 487.9268996116781Q1112.925408576703 486.19031307090614 1113.2428491271667 485.3313562872985L1113.2428491271667 485.3313562872985Q1124.2785764991695 460.6456852453567 1124.2785764991695 459.5253068319554Q1124.2785764991695 458.40492841855405 1122.9714683502011 456.7617067455655L1122.9714683502011 456.7617067455655L1101.310819024443 411.5357647912667Q1098.8833324620734 404.9068591786423 1092.9639998446032 403.00221587586014L1092.9639998446032 403.00221587586014Q1092.5158484792428 402.87150506096333 1091.8436214312019 402.8154861402933L1091.8436214312019 402.8154861402933Q1089.0986943183689 402.55406451049964 1089.0986943183689 401.1722644673047Q1089.0986943183689 399.79046442410976 1090.6672240971307 399.79046442410976L1090.6672240971307 399.79046442410976L1119.8904277133477 399.79046442410976Q1120.413270972935 399.79046442410976 1120.413270972935 400.79880499617093Q1120.413270972935 401.8258185417888 1119.4796222951004 402.18060503936584Q1118.5646465908228 402.55406451049964 1115.4089140597425 402.55406451049964L1115.4089140597425 402.55406451049964Q1110.3672111994367 402.55406451049964 1110.3672111994367 406.4940619309608L1110.3672111994367 406.4940619309608L1110.946073379694 408.06259170972265L1127.957152289837 444.4935631188214Q1129.2642604388052 447.8360253854686 1130.59004156133 444.30683338325446L1130.59004156133 444.30683338325446Q1130.7207523762268 443.97071985923407 1132.2145902607617 440.03072243877284L1132.2145902607617 440.03072243877284Q1141.1589445944155 417.3804055145101 1142.2419770607034 413.8325405387393Q1143.3250095269914 410.2846755629686 1143.3250095269914 408.52941604863986Q1143.3250095269914 406.75548356075444 1141.4390391977659 404.7761483637455Q1139.571741842097 402.8154861402933 1136.3226444432335 402.8154861402933Q1133.0735470443697 402.8154861402933 1133.0735470443697 400.91084283751104L1133.0735470443697 400.91084283751104Q1133.0735470443697 399.79046442410976 1134.5300389817912 399.79046442410976L1134.5300389817912 399.79046442410976ZM1237.4554692262568 366.83266609655504L1237.4554692262568 368.4011958753169Q1237.4554692262568 368.94271210846085 1234.7665610340937 368.94271210846085Q1232.0776528419306 368.94271210846085 1229.4447635704373 370.8100094641297Q1226.830547272501 372.6773068197985 1226.830547272501 378.31654483391833L1226.830547272501 378.31654483391833L1226.830547272501 459.5253068319554Q1226.830547272501 474.16491810039895 1218.4837280926615 486.76917525116346L1218.4837280926615 486.76917525116346Q1212.7697981843148 495.50812687569356 1204.1802303482382 499.05599185146434L1204.1802303482382 499.05599185146434Q1199.7734085888599 500.88594326001976 1195.0864922261312 500.88594326001976Q1190.3809028898459 500.88594326001976 1185.9180622097972 498.7945702216707Q1181.4552215297485 496.6845242097649 1181.4552215297485 494.05163493827183Q1181.4552215297485 491.4374186403355 1183.5652675416545 489.7008320995635Q1185.6566405800036 487.9455725852348 1187.8973974068062 487.9455725852348Q1190.119481260052 487.9455725852348 1191.5759731974738 488.412396924152Q1193.0137921613386 488.8792212630692 1194.0968246276266 489.5701212846667Q1195.1798570939145 490.2423483327075 1196.001467930409 491.0639591692018Q1196.823078766903 491.8855700056961 1198.2982436778816 493.0432943662107Q1199.7734085888599 494.18234575316865 1202.331605966126 494.18234575316865L1202.331605966126 494.18234575316865Q1207.3919817999886 494.18234575316865 1210.0435440450383 489.96225372935714Q1212.713779263645 485.72348873198894 1213.367333338129 479.97221287652894Q1214.0208874126129 474.23960999462565 1214.0208874126129 465.4446394494255L1214.0208874126129 465.4446394494255L1214.0208874126129 376.80403397582654Q1214.0208874126129 370.17512836320225 1206.607716910608 369.2041337382545L1206.607716910608 369.2041337382545Q1204.2362492689083 368.94271210846085 1201.2859194469515 368.94271210846085L1201.2859194469515 368.94271210846085Q1200.7630761873643 368.94271210846085 1200.7630761873643 368.4011958753169L1200.7630761873643 368.4011958753169L1200.7630761873643 366.83266609655504Q1200.7630761873643 366.3098228369678 1201.2859194469515 366.3098228369678L1201.2859194469515 366.3098228369678L1236.9326259666695 366.3098228369678Q1237.4554692262568 366.3098228369678 1237.4554692262568 366.83266609655504L1237.4554692262568 366.83266609655504ZM1248.2857938891357 429.3684545379039Q1248.2857938891357 416.4654298102323 1257.4542239054697 407.1662889790016Q1266.603980948247 397.8858211213276 1279.4136408081351 397.8858211213276Q1292.2046276944666 397.8858211213276 1301.6531523141507 406.90486734920796Q1311.1203499073918 415.9425865506451 1311.1203499073918 429.2003977758937Q1311.1203499073918 442.45820900114234 1302.1573226001815 451.5519471232495Q1293.194295292971 460.6456852453567 1279.6750624379288 460.6456852453567Q1266.1371566093298 460.6456852453567 1257.2114752492328 451.45858225546607Q1248.2857938891357 442.27147926557546 1248.2857938891357 429.3684545379039ZM1264.6433187247949 446.26749560670675L1264.6433187247949 446.26749560670675Q1271.0668216282954 457.0978202695859 1282.1585679209684 457.0978202695859L1282.1585679209684 457.0978202695859Q1290.7668087306015 457.0978202695859 1295.3230142784334 450.20749302716797Q1299.8792198262654 443.31716578475 1299.8792198262654 433.27110601125173Q1299.8792198262654 423.2250462377535 1293.493062869878 412.65614320466796Q1287.088232939934 402.08724017158244 1276.2579082770549 402.08724017158244L1276.2579082770549 402.08724017158244Q1268.3032215419055 402.08724017158244 1263.7470159940735 408.940221466887Q1259.1908104462418 415.81187573574823 1259.1908104462418 426.3434328217204Q1259.1908104462418 436.87498990769257 1264.6433187247949 446.26749560670675ZM1338.4202372472698 352.4544764579051L1338.4202372472698 408.06259170972265Q1338.4202372472698 409.63112148848444 1338.887061586187 409.63112148848444Q1339.3352129515474 409.63112148848444 1339.5406156606712 409.4070458058042Q1339.727345396238 409.18297012312394 1342.2855427735044 406.34467814250735L1342.2855427735044 406.34467814250735Q1349.7173862490663 398.09122383045116 1357.335959460195 398.09122383045116L1357.335959460195 398.09122383045116Q1367.3073273394666 398.09122383045116 1371.9755707286386 402.55406451049964L1371.9755707286386 402.55406451049964Q1377.6708276634286 408.19330252461947 1377.6708276634286 421.5258056440948L1377.6708276634286 421.5258056440948L1377.6708276634286 448.90038487819976Q1377.6708276634286 455.32388778170053 1384.76655761497 456.36957430087506L1384.76655761497 456.36957430087506Q1387.8475982518235 456.7617067455655 1387.8475982518235 457.75137434407Q1387.8475982518235 458.74104194257444 1387.1940441773395 458.87175275747126L1387.1940441773395 458.87175275747126L1357.9148216404524 458.87175275747126Q1357.2612675659684 458.74104194257444 1357.2612675659684 457.95677705319355L1357.2612675659684 457.95677705319355Q1357.2612675659684 456.7617067455655 1360.3423082028219 456.36957430087506L1360.3423082028219 456.36957430087506Q1367.4380381543633 455.32388778170053 1367.4380381543633 448.90038487819976L1367.4380381543633 448.90038487819976L1367.4380381543633 422.17935971857895Q1367.4380381543633 412.52543238977114 1366.0562381111683 409.63112148848444L1366.0562381111683 409.63112148848444Q1363.4420218132323 403.8611726594678 1355.0952026333925 403.8611726594678L1355.0952026333925 403.8611726594678Q1349.9788078788597 403.8611726594678 1344.1901860762864 408.2306484717328Q1338.4202372472698 412.5814513104412 1338.4202372472698 417.8472298534273L1338.4202372472698 417.8472298534273L1338.4202372472698 448.90038487819976Q1338.4202372472698 455.32388778170053 1345.5159671988113 456.36957430087506L1345.5159671988113 456.36957430087506Q1348.597007835665 456.7617067455655 1348.597007835665 457.75137434407Q1348.597007835665 458.74104194257444 1347.943453761181 458.87175275747126L1347.943453761181 458.87175275747126L1318.6642312242939 458.87175275747126Q1318.0106771498097 458.74104194257444 1318.0106771498097 457.95677705319355L1318.0106771498097 457.95677705319355Q1318.0106771498097 456.7617067455655 1321.0917177866631 456.36957430087506L1321.0917177866631 456.36957430087506Q1328.1874477382048 455.32388778170053 1328.1874477382048 448.90038487819976L1328.1874477382048 448.90038487819976L1328.1874477382048 367.0380688056786Q1328.1874477382048 364.2744687192888 1325.1624260220212 363.2287822001142L1325.1624260220212 363.2287822001142Q1323.855317873053 362.76195786119706 1322.3428070149612 362.46319028429Q1320.8302961568697 362.164422707383 1319.9339934261484 361.90300107758935Q1319.056363668984 361.6415794477957 1318.832287986304 361.4175037651155Q1318.589539330067 361.1934280824352 1318.589539330067 360.42783616661103Q1318.589539330067 359.6809172243435 1319.5792069285715 359.1580739647562L1319.5792069285715 359.1580739647562L1336.3288642089208 351.2780791238338Q1337.1131290983017 350.88594667914333 1337.2998588338687 350.88594667914333L1337.2998588338687 350.88594667914333Q1338.4202372472698 350.88594667914333 1338.4202372472698 352.4544764579051L1338.4202372472698 352.4544764579051ZM1442.5967567200335 438.2007710302174L1442.5967567200335 438.2007710302174L1442.4660459051365 424.34542465115476Q1442.4660459051365 415.86789465641834 1441.0282269412714 412.4507404955444Q1439.5904079774068 409.0522593082271 1437.3496511506041 407.2969997938984Q1435.1275672973582 405.5604132531264 1431.3369536653504 405.5604132531264Q1427.5650130068993 405.5604132531264 1415.3528883008253 411.4797458705966L1415.3528883008253 411.4797458705966Q1413.7096666278367 412.4507404955444 1413.6536477071668 413.30969727915203L1413.6536477071668 413.30969727915203L1413.6536477071668 448.6389632484061Q1413.6536477071668 455.2678688610305 1420.7493776587085 456.23886348597824L1420.7493776587085 456.23886348597824Q1423.8304182955617 456.70568782489545 1423.8304182955617 457.7140283969566Q1423.8304182955617 458.74104194257444 1423.1768642210777 458.87175275747126L1423.1768642210777 458.87175275747126L1393.8976416841906 458.87175275747126Q1393.2440876097066 458.74104194257444 1393.2440876097066 457.95677705319355L1393.2440876097066 457.95677705319355Q1393.2440876097066 456.70568782489545 1396.3251282465599 456.23886348597824L1396.3251282465599 456.23886348597824Q1403.4208581981015 455.2678688610305 1403.4208581981015 448.6389632484061L1403.4208581981015 448.6389632484061L1403.4208581981015 410.95690261100935Q1403.4208581981015 408.19330252461947 1400.3958364819182 407.14761600544495L1400.3958364819182 407.14761600544495Q1399.0887283329498 406.68079166652774 1397.5762174748581 406.3820240896207Q1396.0637066167665 406.0832565127137 1395.1674038860451 405.82183488292003Q1394.2897741288812 405.5604132531264 1394.0656984462007 405.3363375704462Q1393.8229497899638 405.1122618877659 1393.8229497899638 404.3466699719417Q1393.8229497899638 403.59975102967417 1394.8126173884682 403.0769077700869L1394.8126173884682 403.0769077700869L1411.5436016952608 395.19691292916445Q1412.3465395581986 394.804780484474 1412.5332692937654 394.804780484474L1412.5332692937654 394.804780484474Q1413.6536477071668 394.804780484474 1413.6536477071668 396.3733102632358L1413.6536477071668 396.3733102632358L1413.6536477071668 406.6247727458576Q1413.8590504162903 407.27832682034176 1414.176490966754 407.27832682034176L1414.176490966754 407.27832682034176Q1414.5686234114444 407.27832682034176 1416.9961099738139 406.0832565127137L1416.9961099738139 406.0832565127137Q1422.6540209614905 403.2636375056538 1428.3492778962805 400.6494212077174Q1434.063207804627 398.0165319362244 1437.816475489521 398.0165319362244L1437.816475489521 398.0165319362244Q1452.978930017552 398.0165319362244 1452.978930017552 425.6525328001229L1452.978930017552 425.6525328001229L1452.381394863738 444.8296766428417L1452.381394863738 448.6389632484061Q1452.381394863738 453.7553580029387 1457.4977896182706 455.32388778170053L1457.4977896182706 455.32388778170053Q1459.6638545508463 456.0521337504114 1461.6805356949687 456.35090132731835Q1463.6785438655345 456.6309959306687 1464.2947519929053 456.911090534019Q1464.9296330938325 457.17251216381266 1464.9296330938325 457.95677705319355Q1464.9296330938325 458.74104194257444 1464.2760790193486 458.87175275747126L1464.2760790193486 458.87175275747126L1432.6253888407618 458.87175275747126Q1431.9718347662779 458.74104194257444 1431.9718347662779 457.95677705319355L1431.9718347662779 457.95677705319355Q1431.9718347662779 456.70568782489545 1435.0528754031313 456.23886348597824L1435.0528754031313 456.23886348597824Q1442.073913460446 455.2678688610305 1442.073913460446 448.0974470152622L1442.073913460446 448.0974470152622Q1442.5967567200335 444.8296766428417 1442.5967567200335 438.2007710302174ZM1502.6677126518994 407.93188089482584L1502.6677126518994 413.9632513536361Q1502.6677126518994 415.4197432910578 1501.5846801856114 415.4197432910578Q1500.5016477193235 415.4197432910578 1499.9227855390661 413.8325405387393L1499.9227855390661 413.8325405387393Q1498.3355827867476 409.5004106735876 1495.217196202781 406.1579484069405Q1492.098809618814 402.8154861402933 1487.5052581238688 402.8154861402933L1487.5052581238688 402.8154861402933Q1481.4738876650583 402.8154861402933 1479.3638416531526 408.84685659910355L1479.3638416531526 408.84685659910355Q1478.7102875786684 410.88221071678254 1478.7102875786684 413.0482756493584Q1478.7102875786684 415.21434058193427 1481.4738876650583 417.865902826984Q1484.2188147778916 420.5361380455904 1490.5302798400521 424.21471383625794Q1496.8230719286562 427.89328962692554 1499.7173828299426 430.4514870041918L1499.7173828299426 430.4514870041918Q1506.2902695218968 436.2961277274352 1506.2902695218968 443.97071985923407Q1506.2902695218968 451.64531199103294 1500.6323585342202 456.1454986181948Q1494.9931205201005 460.6456852453567 1487.5052581238688 460.6456852453567L1487.5052581238688 460.6456852453567Q1483.5092417827373 460.6456852453567 1480.2601443838735 459.56265277906874Q1477.0110469850097 458.4796203127808 1476.506876698979 458.4796203127808Q1476.0213793865053 458.4796203127808 1474.9383469202176 459.56265277906874Q1473.8553144539296 460.6456852453567 1473.2017603794452 460.6456852453567L1473.2017603794452 460.6456852453567L1472.0813819660443 460.6456852453567Q1471.6892495213538 460.6456852453567 1471.0917143675397 453.5499552938151Q1470.5128521872823 446.4728983158303 1470.5128521872823 445.14711719330546Q1470.5128521872823 443.84000904433725 1470.7369278699625 443.70929822944044Q1470.961003552643 443.5785874145436 1471.4838468122302 443.5785874145436Q1472.0066900718175 443.5785874145436 1472.3801495429511 443.8960279650073Q1472.7349360405283 444.2321414890277 1472.9963576703217 444.7176388015016Q1473.2577793001155 445.22180908753216 1473.4258360621257 445.7446523471194Q1473.5938928241358 446.26749560670675 1474.24744689862 447.7053145705717L1474.24744689862 447.7053145705717Q1478.7102875786684 457.2285310844827 1488.028101383456 457.2285310844827L1488.028101383456 457.2285310844827Q1492.1735015130407 457.2285310844827 1494.6570069960803 454.18483639474255Q1497.1591854526764 451.1224687314457 1497.1591854526764 447.38787402010803Q1497.1591854526764 443.6346063352137 1495.1798502556674 441.0764089579474Q1493.2191880322152 438.5182115806811 1490.2875311838152 436.42683854233206Q1487.3745473089716 434.31679253042626 1483.9573931480977 432.356130306974L1483.9573931480977 432.356130306974Q1470.6995819228491 424.6068462809484 1470.6995819228491 415.21434058193427L1470.6995819228491 415.21434058193427Q1470.6995819228491 408.19330252461947 1476.7309523816593 403.0955807436436Q1482.7809958140265 398.0165319362244 1489.1484797968571 398.0165319362244Q1495.5159637796878 398.0165319362244 1498.559658469428 399.3983319794193Q1501.6220261327248 400.7801320226142 1502.144869392312 401.73245367400534Q1502.6677126518994 402.68477532539646 1502.6677126518994 407.93188089482584L1502.6677126518994 407.93188089482584ZM1516.1309265862715 429.3684545379039Q1516.1309265862715 416.4654298102323 1525.2806836290488 407.1662889790016Q1534.4491136453828 397.8858211213276 1547.2401005317142 397.8858211213276Q1560.0497603916024 397.8858211213276 1569.4982850112865 406.90486734920796Q1578.9468096309706 415.9425865506451 1578.9468096309706 429.2003977758937Q1578.9468096309706 442.45820900114234 1569.9837823237604 451.5519471232495Q1561.0394279901068 460.6456852453567 1547.5015221615079 460.6456852453567Q1533.9822893064656 460.6456852453567 1525.0566079463686 451.45858225546607Q1516.1309265862715 442.27147926557546 1516.1309265862715 429.3684545379039ZM1532.4697784483737 446.26749560670675L1532.4697784483737 446.26749560670675Q1538.9119543254312 457.0978202695859 1550.003700618104 457.0978202695859L1550.003700618104 457.0978202695859Q1558.5932684541808 457.0978202695859 1563.1681469755692 450.20749302716797Q1567.7243525234012 443.31716578475 1567.7243525234012 433.27110601125173Q1567.7243525234012 423.2250462377535 1561.3195225934571 412.65614320466796Q1554.9333656370695 402.08724017158244 1544.1030409741907 402.08724017158244L1544.1030409741907 402.08724017158244Q1536.1483542390413 402.08724017158244 1531.5921486912093 408.940221466887Q1527.0172701698207 415.81187573574823 1527.0172701698207 426.3434328217204Q1527.0172701698207 436.87498990769257 1532.4697784483737 446.26749560670675ZM1636.664970894694 438.2007710302174L1636.664970894694 438.2007710302174L1636.5342600797971 424.34542465115476Q1636.5342600797971 415.86789465641834 1635.0777681423756 412.4507404955444Q1633.6399491785105 409.0522593082271 1631.3991923517078 407.2969997938984Q1629.177108498462 405.5604132531264 1625.405167840011 405.5604132531264Q1621.6145542080033 405.5604132531264 1609.421102475486 411.4797458705966L1609.421102475486 411.4797458705966Q1607.7778808024973 412.4507404955444 1607.7031889082707 413.30969727915203L1607.7031889082707 413.30969727915203L1607.7031889082707 448.6389632484061Q1607.7031889082707 455.2678688610305 1614.7989188598121 456.23886348597824L1614.7989188598121 456.23886348597824Q1617.8799594966656 456.70568782489545 1617.8799594966656 457.7140283969566Q1617.8799594966656 458.74104194257444 1617.2264054221819 458.87175275747126L1617.2264054221819 458.87175275747126L1587.9471828852943 458.87175275747126Q1587.2936288108103 458.74104194257444 1587.2936288108103 457.95677705319355L1587.2936288108103 457.95677705319355Q1587.2936288108103 456.70568782489545 1590.374669447664 456.23886348597824L1590.374669447664 456.23886348597824Q1597.4703993992057 455.2678688610305 1597.4703993992057 448.6389632484061L1597.4703993992057 448.6389632484061L1597.4703993992057 410.95690261100935Q1597.4703993992057 408.19330252461947 1594.445377683022 407.14761600544495L1594.445377683022 407.14761600544495Q1593.138269534054 406.68079166652774 1591.625758675962 406.3820240896207Q1590.1132478178702 406.0832565127137 1589.235618060706 405.82183488292003Q1588.3393153299849 405.5604132531264 1588.1152396473049 405.3363375704462Q1587.872490991068 405.1122618877659 1587.872490991068 404.3466699719417Q1587.872490991068 403.59975102967417 1588.8621585895721 403.0769077700869L1588.8621585895721 403.0769077700869L1605.6118158699217 395.19691292916445Q1606.3960807593025 394.804780484474 1606.5828104948691 394.804780484474L1606.5828104948691 394.804780484474Q1607.7031889082707 394.804780484474 1607.7031889082707 396.3733102632358L1607.7031889082707 396.3733102632358L1607.7031889082707 406.6247727458576Q1607.9085916173942 407.27832682034176 1608.2260321678577 407.27832682034176L1608.2260321678577 407.27832682034176Q1608.6181646125483 407.27832682034176 1611.0456511749178 406.0832565127137L1611.0456511749178 406.0832565127137Q1616.7035621625942 403.2636375056538 1622.417492070941 400.6494212077174Q1628.1314219792873 398.0165319362244 1631.866016690625 398.0165319362244L1631.866016690625 398.0165319362244Q1647.028471218656 398.0165319362244 1647.028471218656 425.6525328001229L1647.028471218656 425.6525328001229L1646.4309360648422 444.8296766428417L1646.4309360648422 448.6389632484061Q1646.4309360648422 453.7553580029387 1651.5660037929313 455.32388778170053L1651.5660037929313 455.32388778170053Q1653.732068725507 456.0521337504114 1655.7300768960727 456.35090132731835Q1657.7280850666384 456.6309959306687 1658.3442931940092 456.911090534019Q1658.9791742949365 457.17251216381266 1658.9791742949365 457.95677705319355Q1658.9791742949365 458.74104194257444 1658.3256202204525 458.87175275747126L1658.3256202204525 458.87175275747126L1626.6749300418658 458.87175275747126Q1626.0213759673816 458.74104194257444 1626.0213759673816 457.95677705319355L1626.0213759673816 457.95677705319355Q1626.0213759673816 456.70568782489545 1629.1024166042353 456.23886348597824L1629.1024166042353 456.23886348597824Q1636.12345466155 455.2678688610305 1636.12345466155 448.0974470152622L1636.12345466155 448.0974470152622Q1636.664970894694 444.8296766428417 1636.664970894694 438.2007710302174Z " fill="#fbeaeb" transform="matrix(0.5274328029703825,0,0,0.5274328029703825,0,75.37379639745936)"/></g></svg>